<svg xmlns="http://www.w3.org/2000/svg" viewBox="0 0 100 100">
  <defs>
    <linearGradient id="grad" x1="0%" y1="0%" x2="100%" y2="100%">
      <stop offset="0%" style="stop-color:#3b82f6;stop-opacity:1" />
      <stop offset="50%" style="stop-color:#8b5cf6;stop-opacity:1" />
      <stop offset="100%" style="stop-color:#ec4899;stop-opacity:1" />
    </linearGradient>
  </defs>
  <rect width="100" height="100" rx="20" fill="url(#grad)"/>
  <path d="M25 35 L45 35 L45 55 L25 55 Z" fill="white" opacity="0.9"/>
  <path d="M30 40 L40 40 L40 50 L30 50 Z" fill="none" stroke="white" stroke-width="2"/>
  <circle cx="33" cy="43" r="2" fill="white"/>
  <path d="M30 47 L35 44 L40 47" fill="none" stroke="white" stroke-width="2" stroke-linecap="round"/>
  <path d="M50 45 L60 45 M55 40 L60 45 L55 50" fill="none" stroke="white" stroke-width="3" stroke-linecap="round" stroke-linejoin="round"/>
  <path d="M65 35 L85 35 L85 55 L65 55 Z" fill="white" opacity="0.9"/>
  <path d="M70 40 L80 40 L80 50 L70 50 Z" fill="none" stroke="white" stroke-width="2"/>
  <circle cx="73" cy="43" r="2" fill="white"/>
  <path d="M70 47 L75 44 L80 47" fill="none" stroke="white" stroke-width="2" stroke-linecap="round"/>
  <text x="50" y="75" font-family="Arial, sans-serif" font-size="14" font-weight="bold" fill="white" text-anchor="middle">IMG</text>
</svg>
